<mxfile host="Electron" agent="Mozilla/5.0 (Windows NT 10.0; Win64; x64) AppleWebKit/537.36 (KHTML, like Gecko) draw.io/26.0.16 Chrome/132.0.6834.196 Electron/34.2.0 Safari/537.36" version="26.0.16">
  <diagram name="Page-1" id="wYPo5viB8byPGAXyulV-">
    <mxGraphModel dx="1674" dy="836" grid="1" gridSize="10" guides="1" tooltips="1" connect="1" arrows="1" fold="1" page="1" pageScale="1" pageWidth="850" pageHeight="1100" math="0" shadow="0">
      <root>
        <mxCell id="0" />
        <mxCell id="1" parent="0" />
        <mxCell id="Yl0C9zwD8laGA79P2EYS-14" value="" style="swimlane;startSize=0;" parent="1" vertex="1">
          <mxGeometry x="240" y="20" width="570" height="740" as="geometry" />
        </mxCell>
        <mxCell id="Yl0C9zwD8laGA79P2EYS-15" value="Estate Gate Pass App" style="text;html=1;align=center;verticalAlign=middle;resizable=0;points=[];autosize=1;strokeColor=none;fillColor=none;" parent="Yl0C9zwD8laGA79P2EYS-14" vertex="1">
          <mxGeometry x="170" width="140" height="30" as="geometry" />
        </mxCell>
        <mxCell id="Yl0C9zwD8laGA79P2EYS-19" value="Tenant Registration" style="ellipse;whiteSpace=wrap;html=1;" parent="Yl0C9zwD8laGA79P2EYS-14" vertex="1">
          <mxGeometry x="140" y="70" width="230" height="100" as="geometry" />
        </mxCell>
        <mxCell id="Yl0C9zwD8laGA79P2EYS-21" value="OTP Generator" style="ellipse;whiteSpace=wrap;html=1;" parent="Yl0C9zwD8laGA79P2EYS-14" vertex="1">
          <mxGeometry x="140" y="320" width="230" height="100" as="geometry" />
        </mxCell>
        <mxCell id="Yl0C9zwD8laGA79P2EYS-22" value="OTP Validator" style="ellipse;whiteSpace=wrap;html=1;" parent="Yl0C9zwD8laGA79P2EYS-14" vertex="1">
          <mxGeometry x="140" y="450" width="230" height="100" as="geometry" />
        </mxCell>
        <mxCell id="Yl0C9zwD8laGA79P2EYS-25" value="" style="swimlane;startSize=0;" parent="Yl0C9zwD8laGA79P2EYS-14" vertex="1">
          <mxGeometry width="570" height="740" as="geometry" />
        </mxCell>
        <mxCell id="Yl0C9zwD8laGA79P2EYS-26" value="Estate Gate Pass App" style="text;html=1;align=center;verticalAlign=middle;resizable=0;points=[];autosize=1;strokeColor=none;fillColor=none;" parent="Yl0C9zwD8laGA79P2EYS-25" vertex="1">
          <mxGeometry x="170" width="140" height="30" as="geometry" />
        </mxCell>
        <mxCell id="Yl0C9zwD8laGA79P2EYS-27" value="Register Tenant" style="ellipse;whiteSpace=wrap;html=1;" parent="Yl0C9zwD8laGA79P2EYS-25" vertex="1">
          <mxGeometry x="140" y="70" width="230" height="100" as="geometry" />
        </mxCell>
        <mxCell id="Yl0C9zwD8laGA79P2EYS-30" value="Validate OTP" style="ellipse;whiteSpace=wrap;html=1;" parent="Yl0C9zwD8laGA79P2EYS-25" vertex="1">
          <mxGeometry x="140" y="450" width="230" height="100" as="geometry" />
        </mxCell>
        <mxCell id="Yl0C9zwD8laGA79P2EYS-31" value="Update Visitors Pass" style="ellipse;whiteSpace=wrap;html=1;" parent="Yl0C9zwD8laGA79P2EYS-25" vertex="1">
          <mxGeometry x="238" y="570" width="230" height="100" as="geometry" />
        </mxCell>
        <mxCell id="Yl0C9zwD8laGA79P2EYS-67" value="Verify Password" style="ellipse;whiteSpace=wrap;html=1;" parent="Yl0C9zwD8laGA79P2EYS-25" vertex="1">
          <mxGeometry x="410" y="210" width="160" height="80" as="geometry" />
        </mxCell>
        <mxCell id="Yl0C9zwD8laGA79P2EYS-20" value="Login" style="ellipse;whiteSpace=wrap;html=1;" parent="Yl0C9zwD8laGA79P2EYS-25" vertex="1">
          <mxGeometry x="125" y="210" width="230" height="100" as="geometry" />
        </mxCell>
        <mxCell id="Yl0C9zwD8laGA79P2EYS-74" value="Display login error" style="ellipse;whiteSpace=wrap;html=1;" parent="Yl0C9zwD8laGA79P2EYS-25" vertex="1">
          <mxGeometry x="400" y="310" width="160" height="80" as="geometry" />
        </mxCell>
        <mxCell id="Yl0C9zwD8laGA79P2EYS-77" style="edgeStyle=orthogonalEdgeStyle;rounded=0;orthogonalLoop=1;jettySize=auto;html=1;exitX=0.5;exitY=0;exitDx=0;exitDy=0;entryX=0.961;entryY=0.71;entryDx=0;entryDy=0;entryPerimeter=0;dashed=1;" parent="Yl0C9zwD8laGA79P2EYS-25" source="Yl0C9zwD8laGA79P2EYS-74" target="Yl0C9zwD8laGA79P2EYS-20" edge="1">
          <mxGeometry relative="1" as="geometry">
            <Array as="points">
              <mxPoint x="346" y="310" />
            </Array>
          </mxGeometry>
        </mxCell>
        <mxCell id="Yl0C9zwD8laGA79P2EYS-29" value="&amp;nbsp;Generate&amp;nbsp; OTP" style="ellipse;whiteSpace=wrap;html=1;" parent="Yl0C9zwD8laGA79P2EYS-14" vertex="1">
          <mxGeometry x="140" y="320" width="230" height="100" as="geometry" />
        </mxCell>
        <mxCell id="Yl0C9zwD8laGA79P2EYS-70" value="" style="edgeStyle=orthogonalEdgeStyle;rounded=0;orthogonalLoop=1;jettySize=auto;html=1;dashed=1;" parent="Yl0C9zwD8laGA79P2EYS-14" target="Yl0C9zwD8laGA79P2EYS-67" edge="1">
          <mxGeometry relative="1" as="geometry">
            <mxPoint x="355" y="250" as="sourcePoint" />
          </mxGeometry>
        </mxCell>
        <mxCell id="Yl0C9zwD8laGA79P2EYS-45" style="edgeStyle=orthogonalEdgeStyle;rounded=0;orthogonalLoop=1;jettySize=auto;html=1;exitX=0.75;exitY=0.1;exitDx=0;exitDy=0;exitPerimeter=0;" parent="1" source="Yl0C9zwD8laGA79P2EYS-38" target="Yl0C9zwD8laGA79P2EYS-27" edge="1">
          <mxGeometry relative="1" as="geometry" />
        </mxCell>
        <mxCell id="Yl0C9zwD8laGA79P2EYS-46" style="edgeStyle=orthogonalEdgeStyle;rounded=0;orthogonalLoop=1;jettySize=auto;html=1;exitX=1;exitY=0.3333333333333333;exitDx=0;exitDy=0;exitPerimeter=0;" parent="1" source="Yl0C9zwD8laGA79P2EYS-38" edge="1">
          <mxGeometry relative="1" as="geometry">
            <mxPoint x="367.32347183197385" y="280" as="targetPoint" />
            <Array as="points">
              <mxPoint x="300" y="207" />
              <mxPoint x="300" y="280" />
            </Array>
          </mxGeometry>
        </mxCell>
        <mxCell id="Yl0C9zwD8laGA79P2EYS-38" value="Tenant" style="shape=umlActor;verticalLabelPosition=bottom;verticalAlign=top;html=1;outlineConnect=0;" parent="1" vertex="1">
          <mxGeometry x="150" y="170" width="70" height="110" as="geometry" />
        </mxCell>
        <mxCell id="Yl0C9zwD8laGA79P2EYS-47" style="edgeStyle=orthogonalEdgeStyle;rounded=0;orthogonalLoop=1;jettySize=auto;html=1;exitX=0.5;exitY=0.5;exitDx=0;exitDy=0;exitPerimeter=0;entryX=0.043;entryY=0.29;entryDx=0;entryDy=0;entryPerimeter=0;" parent="1" source="Yl0C9zwD8laGA79P2EYS-38" target="Yl0C9zwD8laGA79P2EYS-29" edge="1">
          <mxGeometry relative="1" as="geometry">
            <Array as="points">
              <mxPoint x="300" y="225" />
              <mxPoint x="300" y="370" />
            </Array>
          </mxGeometry>
        </mxCell>
        <mxCell id="Yl0C9zwD8laGA79P2EYS-50" value="Security" style="shape=umlActor;verticalLabelPosition=bottom;verticalAlign=top;html=1;outlineConnect=0;" parent="1" vertex="1">
          <mxGeometry x="140" y="380" width="70" height="110" as="geometry" />
        </mxCell>
        <mxCell id="Yl0C9zwD8laGA79P2EYS-53" style="edgeStyle=orthogonalEdgeStyle;rounded=0;orthogonalLoop=1;jettySize=auto;html=1;exitX=1;exitY=0.3333333333333333;exitDx=0;exitDy=0;exitPerimeter=0;entryX=0.009;entryY=0.44;entryDx=0;entryDy=0;entryPerimeter=0;" parent="1" source="Yl0C9zwD8laGA79P2EYS-50" target="Yl0C9zwD8laGA79P2EYS-30" edge="1">
          <mxGeometry relative="1" as="geometry" />
        </mxCell>
        <mxCell id="Yl0C9zwD8laGA79P2EYS-54" style="edgeStyle=orthogonalEdgeStyle;rounded=0;orthogonalLoop=1;jettySize=auto;html=1;exitX=0.5;exitY=0.5;exitDx=0;exitDy=0;exitPerimeter=0;entryX=0;entryY=0.4;entryDx=0;entryDy=0;entryPerimeter=0;" parent="1" source="Yl0C9zwD8laGA79P2EYS-50" target="Yl0C9zwD8laGA79P2EYS-31" edge="1">
          <mxGeometry relative="1" as="geometry">
            <Array as="points">
              <mxPoint x="340" y="435" />
              <mxPoint x="340" y="630" />
            </Array>
          </mxGeometry>
        </mxCell>
        <mxCell id="Yl0C9zwD8laGA79P2EYS-71" value="include" style="text;html=1;align=center;verticalAlign=middle;resizable=0;points=[];autosize=1;strokeColor=none;fillColor=none;" parent="1" vertex="1">
          <mxGeometry x="590" y="238" width="60" height="30" as="geometry" />
        </mxCell>
        <mxCell id="Yl0C9zwD8laGA79P2EYS-78" value="Extend" style="text;html=1;align=center;verticalAlign=middle;resizable=0;points=[];autosize=1;strokeColor=none;fillColor=none;" parent="1" vertex="1">
          <mxGeometry x="600" y="298" width="60" height="30" as="geometry" />
        </mxCell>
      </root>
    </mxGraphModel>
  </diagram>
</mxfile>
